<svg width="16" height="10" viewBox="0 0 16 10" fill="none" xmlns="http://www.w3.org/2000/svg">
<path fill-rule="evenodd" clip-rule="evenodd" d="M7.59158 0.209802C7.64516 0.143298 7.70882 0.0905335 7.77891 0.0545322C7.84899 0.0185308 7.92412 0 8 0C8.07588 0 8.15101 0.0185308 8.22109 0.0545322C8.29118 0.0905335 8.35484 0.143298 8.40842 0.209802L15.3308 8.77936C15.4391 8.91346 15.5 9.09533 15.5 9.28497C15.5 9.47461 15.4391 9.65648 15.3308 9.79057C15.2225 9.92467 15.0756 10 14.9224 10C14.7692 10 14.6223 9.92467 14.514 9.79057L8 1.72519L1.48602 9.79057C1.3777 9.92467 1.23078 10 1.0776 10C0.924408 10 0.777494 9.92467 0.669174 9.79057C0.560854 9.65648 0.5 9.47461 0.5 9.28497C0.5 9.09533 0.560854 8.91346 0.669174 8.77936L7.59158 0.209802Z" fill="#EAF1E7"/>
</svg>
