<svg width="20" height="20" viewBox="0 0 20 20" fill="none" xmlns="http://www.w3.org/2000/svg">
<path fill-rule="evenodd" clip-rule="evenodd" d="M9.5575 5.8075C9.61556 5.7493 9.68453 5.70312 9.76046 5.67161C9.83639 5.6401 9.91779 5.62388 10 5.62388C10.0822 5.62388 10.1636 5.6401 10.2395 5.67161C10.3155 5.70312 10.3844 5.7493 10.4425 5.8075L17.9425 13.3075C18.0599 13.4249 18.1258 13.584 18.1258 13.75C18.1258 13.916 18.0599 14.0751 17.9425 14.1925C17.8251 14.3099 17.666 14.3758 17.5 14.3758C17.334 14.3758 17.1749 14.3099 17.0575 14.1925L10 7.13375L2.9425 14.1925C2.82514 14.3099 2.66597 14.3758 2.5 14.3758C2.33403 14.3758 2.17486 14.3099 2.0575 14.1925C1.94014 14.0751 1.87421 13.916 1.87421 13.75C1.87421 13.584 1.94014 13.4249 2.0575 13.3075L9.5575 5.8075Z" fill="#101E11"/>
</svg>
