<svg width="17" height="9" viewBox="0 0 17 9" fill="none" xmlns="http://www.w3.org/2000/svg">
<path fill-rule="evenodd" clip-rule="evenodd" d="M0.183617 0.183617C0.241674 0.125413 0.310644 0.0792341 0.386575 0.047726C0.462507 0.016218 0.543908 0 0.626117 0C0.708326 0 0.789728 0.016218 0.865659 0.047726C0.941591 0.0792341 1.01056 0.125413 1.06862 0.183617L8.12612 7.24237L15.1836 0.183617C15.2417 0.125507 15.3107 0.0794115 15.3866 0.0479627C15.4626 0.0165138 15.5439 0.000327229 15.6261 0.000327229C15.7083 0.000327229 15.7897 0.0165138 15.8656 0.0479627C15.9415 0.0794115 16.0105 0.125507 16.0686 0.183617C16.1267 0.241727 16.1728 0.310713 16.2043 0.386637C16.2357 0.462562 16.2519 0.543937 16.2519 0.626117C16.2519 0.708297 16.2357 0.789672 16.2043 0.865596C16.1728 0.941521 16.1267 1.01051 16.0686 1.06862L8.56862 8.56862C8.51056 8.62682 8.44159 8.673 8.36566 8.70451C8.28973 8.73601 8.20833 8.75223 8.12612 8.75223C8.04391 8.75223 7.96251 8.73601 7.88658 8.70451C7.81064 8.673 7.74167 8.62682 7.68362 8.56862L0.183617 1.06862C0.125413 1.01056 0.0792347 0.94159 0.0477266 0.865659C0.0162186 0.789728 0 0.708326 0 0.626117C0 0.543908 0.0162186 0.462506 0.0477266 0.386575C0.0792347 0.310643 0.125413 0.241674 0.183617 0.183617Z" fill="#43633C"/>
</svg>
