<svg width="17" height="9" viewBox="0 0 17 9" fill="none" xmlns="http://www.w3.org/2000/svg">
<path fill-rule="evenodd" clip-rule="evenodd" d="M0.183617 8.56882C0.241674 8.62703 0.310644 8.67321 0.386575 8.70472C0.462507 8.73622 0.543908 8.75244 0.626117 8.75244C0.708326 8.75244 0.789728 8.73622 0.865659 8.70472C0.941591 8.67321 1.01056 8.62703 1.06862 8.56882L8.12612 1.51007L15.1836 8.56882C15.2417 8.62693 15.3107 8.67303 15.3866 8.70448C15.4626 8.73593 15.5439 8.75211 15.6261 8.75211C15.7083 8.75211 15.7897 8.73593 15.8656 8.70448C15.9415 8.67303 16.0105 8.62693 16.0686 8.56882C16.1267 8.51071 16.1728 8.44173 16.2043 8.3658C16.2357 8.28988 16.2519 8.2085 16.2519 8.12632C16.2519 8.04414 16.2357 7.96277 16.2043 7.88684C16.1728 7.81092 16.1267 7.74193 16.0686 7.68382L8.56862 0.183825C8.51056 0.125621 8.44159 0.0794429 8.36566 0.0479349C8.28973 0.0164268 8.20833 0.000208259 8.12612 0.000208259C8.04391 0.000208259 7.96251 0.0164268 7.88658 0.0479349C7.81064 0.0794429 7.74167 0.125621 7.68362 0.183825L0.183617 7.68382C0.125413 7.74188 0.0792347 7.81085 0.0477266 7.88678C0.0162186 7.96271 0 8.04412 0 8.12632C0 8.20853 0.0162186 8.28994 0.0477266 8.36587C0.0792347 8.4418 0.125413 8.51077 0.183617 8.56882Z" fill="#43633C"/>
</svg>
