<svg width="16" height="10" viewBox="0 0 16 10" fill="none" xmlns="http://www.w3.org/2000/svg">
<path fill-rule="evenodd" clip-rule="evenodd" d="M7.59158 9.7902C7.64516 9.8567 7.70882 9.90947 7.77891 9.94547C7.84899 9.98147 7.92412 10 8 10C8.07588 10 8.15101 9.98147 8.22109 9.94547C8.29118 9.90947 8.35484 9.8567 8.40842 9.7902L15.3308 1.22064C15.4391 1.08654 15.5 0.90467 15.5 0.715032C15.5 0.525393 15.4391 0.343522 15.3308 0.209427C15.2225 0.0753326 15.0756 0 14.9224 0C14.7692 0 14.6223 0.0753326 14.514 0.209427L8 8.27481L1.48602 0.209427C1.3777 0.0753326 1.23078 0 1.0776 0C0.924408 0 0.777494 0.0753326 0.669174 0.209427C0.560854 0.343522 0.5 0.525393 0.5 0.715032C0.5 0.90467 0.560854 1.08654 0.669174 1.22064L7.59158 9.7902Z" fill="#EAF1E7"/>
</svg>
