<svg width="14" height="15" viewBox="0 0 14 15" fill="none" xmlns="http://www.w3.org/2000/svg">
<path d="M3.5 0.9375C3.5 0.821468 3.45391 0.710188 3.37186 0.628141C3.28981 0.546094 3.17853 0.5 3.0625 0.5C2.94647 0.5 2.83519 0.546094 2.75314 0.628141C2.67109 0.710188 2.625 0.821468 2.625 0.9375V1.375H1.75C1.28587 1.375 0.840752 1.55937 0.512563 1.88756C0.184374 2.21575 0 2.66087 0 3.125L0 4H14V3.125C14 2.66087 13.8156 2.21575 13.4874 1.88756C13.1592 1.55937 12.7141 1.375 12.25 1.375H11.375V0.9375C11.375 0.821468 11.3289 0.710188 11.2469 0.628141C11.1648 0.546094 11.0535 0.5 10.9375 0.5C10.8215 0.5 10.7102 0.546094 10.6281 0.628141C10.5461 0.710188 10.5 0.821468 10.5 0.9375V1.375H3.5V0.9375ZM14 12.75V4.875H0V12.75C0 13.2141 0.184374 13.6592 0.512563 13.9874C0.840752 14.3156 1.28587 14.5 1.75 14.5H12.25C12.7141 14.5 13.1592 14.3156 13.4874 13.9874C13.8156 13.6592 14 13.2141 14 12.75ZM10.9375 6.625H11.8125C11.9285 6.625 12.0398 6.67109 12.1219 6.75314C12.2039 6.83519 12.25 6.94647 12.25 7.0625V7.9375C12.25 8.05353 12.2039 8.16481 12.1219 8.24686C12.0398 8.32891 11.9285 8.375 11.8125 8.375H10.9375C10.8215 8.375 10.7102 8.32891 10.6281 8.24686C10.5461 8.16481 10.5 8.05353 10.5 7.9375V7.0625C10.5 6.94647 10.5461 6.83519 10.6281 6.75314C10.7102 6.67109 10.8215 6.625 10.9375 6.625Z" fill="#101E11"/>
</svg>
