<svg width="40" height="41" viewBox="0 0 40 41" fill="none" xmlns="http://www.w3.org/2000/svg">
<g clip-path="url(#clip0_388_832)">
<path d="M40.0001 20.6225C40.0001 9.5075 31.0451 0.497498 20.0001 0.497498C8.95012 0.499998 -0.00488281 9.5075 -0.00488281 20.625C-0.00488281 30.6675 7.31012 38.9925 16.8701 40.5025V26.44H11.7951V20.625H16.8751V16.1875C16.8751 11.145 19.8626 8.36 24.4301 8.36C26.6201 8.36 28.9076 8.7525 28.9076 8.7525V13.7025H26.3851C23.9026 13.7025 23.1276 15.255 23.1276 16.8475V20.6225H28.6726L27.7876 26.4375H23.1251V40.5C32.6851 38.99 40.0001 30.665 40.0001 20.6225Z" fill="white"/>
</g>
<defs>
<clipPath id="clip0_388_832">
<rect width="40" height="40" fill="white" transform="translate(0 0.5)"/>
</clipPath>
</defs>
</svg>
