<svg width="20" height="20" viewBox="0 0 20 20" fill="none" xmlns="http://www.w3.org/2000/svg">
<g clip-path="url(#clip0_959_527)">
<path d="M8.75 3.125C8.75 3.9538 8.42076 4.74866 7.83471 5.33471C7.24866 5.92076 6.4538 6.25 5.625 6.25C4.7962 6.25 4.00134 5.92076 3.41529 5.33471C2.82924 4.74866 2.5 3.9538 2.5 3.125C2.5 2.2962 2.82924 1.50134 3.41529 0.915291C4.00134 0.32924 4.7962 0 5.625 0C6.4538 0 7.24866 0.32924 7.83471 0.915291C8.42076 1.50134 8.75 2.2962 8.75 3.125ZM14.0313 8.19125C13.914 8.13253 13.7813 8.11216 13.6519 8.13302C13.5224 8.15388 13.4028 8.21492 13.31 8.3075L8.6725 14.195L5.3475 10.73C5.22745 10.6501 5.08345 10.6141 4.93993 10.6283C4.7964 10.6424 4.66217 10.7057 4.56 10.8075L0.00250244 16.25V18.75C0.00250244 19.0815 0.134198 19.3995 0.368619 19.6339C0.603039 19.8683 0.920982 20 1.2525 20H18.7525C18.9167 20 19.0792 19.9677 19.2309 19.9049C19.3825 19.842 19.5203 19.75 19.6364 19.6339C19.7525 19.5178 19.8445 19.38 19.9074 19.2284C19.9702 19.0767 20.0025 18.9142 20.0025 18.75V13.125L14.0313 8.19125Z" fill="#43633C"/>
</g>
<defs>
<clipPath id="clip0_959_527">
<rect width="20" height="20" fill="white"/>
</clipPath>
</defs>
</svg>
