<svg width="40" height="41" viewBox="0 0 40 41" fill="none" xmlns="http://www.w3.org/2000/svg">
<g clip-path="url(#clip0_388_834)">
<path d="M20 0.5C14.5725 0.5 13.89 0.525 11.7575 0.62C9.625 0.72 8.1725 1.055 6.9 1.55C5.56461 2.05081 4.35535 2.8385 3.3575 3.8575C2.3385 4.85535 1.55081 6.06461 1.05 7.4C0.555 8.67 0.2175 10.125 0.12 12.25C0.025 14.3875 0 15.0675 0 20.5025C0 25.9325 0.025 26.6125 0.12 28.745C0.22 30.875 0.555 32.3275 1.05 33.6C1.5625 34.915 2.245 36.03 3.3575 37.1425C4.4675 38.255 5.5825 38.94 6.8975 39.45C8.1725 39.945 9.6225 40.2825 11.7525 40.38C13.8875 40.475 14.5675 40.5 20 40.5C25.4325 40.5 26.11 40.475 28.245 40.38C30.3725 40.28 31.83 39.945 33.1025 39.45C34.437 38.9489 35.6454 38.1612 36.6425 37.1425C37.755 36.03 38.4375 34.915 38.95 33.6C39.4425 32.3275 39.78 30.875 39.88 28.745C39.975 26.6125 40 25.9325 40 20.5C40 15.0675 39.975 14.3875 39.88 12.2525C39.78 10.125 39.4425 8.67 38.95 7.4C38.4492 6.06461 37.6615 4.85535 36.6425 3.8575C35.6446 2.8385 34.4354 2.05081 33.1 1.55C31.825 1.055 30.37 0.7175 28.2425 0.62C26.1075 0.525 25.43 0.5 19.995 0.5H20ZM18.2075 4.105H20.0025C25.3425 4.105 25.975 4.1225 28.0825 4.22C30.0325 4.3075 31.0925 4.635 31.7975 4.9075C32.73 5.27 33.3975 5.705 34.0975 6.405C34.7975 7.105 35.23 7.77 35.5925 8.705C35.8675 9.4075 36.1925 10.4675 36.28 12.4175C36.3775 14.525 36.3975 15.1575 36.3975 20.495C36.3975 25.8325 36.3775 26.4675 36.28 28.575C36.1925 30.525 35.865 31.5825 35.5925 32.2875C35.2696 33.1548 34.7581 33.9395 34.095 34.585C33.395 35.285 32.73 35.7175 31.795 36.08C31.095 36.355 30.035 36.68 28.0825 36.77C25.975 36.865 25.3425 36.8875 20.0025 36.8875C14.6625 36.8875 14.0275 36.865 11.92 36.77C9.97 36.68 8.9125 36.355 8.2075 36.08C7.33958 35.7581 6.554 35.2475 5.9075 34.585C5.24318 33.939 4.73082 33.1534 4.4075 32.285C4.135 31.5825 3.8075 30.5225 3.72 28.5725C3.625 26.465 3.605 25.8325 3.605 20.49C3.605 15.1475 3.625 14.52 3.72 12.4125C3.81 10.4625 4.135 9.4025 4.41 8.6975C4.7725 7.765 5.2075 7.0975 5.9075 6.3975C6.6075 5.6975 7.2725 5.265 8.2075 4.9025C8.9125 4.6275 9.97 4.3025 11.92 4.2125C13.765 4.1275 14.48 4.1025 18.2075 4.1V4.105ZM30.6775 7.425C30.3623 7.425 30.0502 7.48708 29.7591 7.60769C29.4679 7.7283 29.2033 7.90508 28.9804 8.12794C28.7576 8.3508 28.5808 8.61538 28.4602 8.90656C28.3396 9.19774 28.2775 9.50983 28.2775 9.825C28.2775 10.1402 28.3396 10.4523 28.4602 10.7434C28.5808 11.0346 28.7576 11.2992 28.9804 11.5221C29.2033 11.7449 29.4679 11.9217 29.7591 12.0423C30.0502 12.1629 30.3623 12.225 30.6775 12.225C31.314 12.225 31.9245 11.9721 32.3746 11.5221C32.8246 11.072 33.0775 10.4615 33.0775 9.825C33.0775 9.18848 32.8246 8.57803 32.3746 8.12794C31.9245 7.67786 31.314 7.425 30.6775 7.425ZM20.0025 10.23C18.6402 10.2087 17.2872 10.4587 16.0224 10.9654C14.7577 11.472 13.6063 12.2252 12.6354 13.1811C11.6645 14.1369 10.8934 15.2764 10.3671 16.5331C9.8408 17.7899 9.56975 19.1388 9.56975 20.5012C9.56975 21.8637 9.8408 23.2126 10.3671 24.4693C10.8934 25.7261 11.6645 26.8656 12.6354 27.8214C13.6063 28.7773 14.7577 29.5305 16.0224 30.0371C17.2872 30.5438 18.6402 30.7938 20.0025 30.7725C22.6989 30.7304 25.2705 29.6298 27.1624 27.7081C29.0544 25.7865 30.1148 23.1979 30.1147 20.5012C30.1148 17.8046 29.0544 15.216 27.1624 13.2944C25.2705 11.3727 22.6989 10.2721 20.0025 10.23ZM20.0025 13.8325C20.8781 13.8325 21.7451 14.005 22.554 14.34C23.363 14.6751 24.098 15.1662 24.7171 15.7854C25.3363 16.4045 25.8274 17.1395 26.1625 17.9485C26.4975 18.7574 26.67 19.6244 26.67 20.5C26.67 21.3756 26.4975 22.2426 26.1625 23.0515C25.8274 23.8605 25.3363 24.5955 24.7171 25.2146C24.098 25.8338 23.363 26.3249 22.554 26.66C21.7451 26.995 20.8781 27.1675 20.0025 27.1675C18.2342 27.1675 16.5383 26.465 15.2879 25.2146C14.0375 23.9642 13.335 22.2683 13.335 20.5C13.335 18.7317 14.0375 17.0358 15.2879 15.7854C16.5383 14.535 18.2342 13.8325 20.0025 13.8325Z" fill="white"/>
</g>
<defs>
<clipPath id="clip0_388_834">
<rect width="40" height="40" fill="white" transform="translate(0 0.5)"/>
</clipPath>
</defs>
</svg>
