<svg width="40" height="41" viewBox="0 0 40 41" fill="none" xmlns="http://www.w3.org/2000/svg">
<g clip-path="url(#clip0_388_838)">
<path fill-rule="evenodd" clip-rule="evenodd" d="M4.71246 1.7775C5.14989 1.34072 5.67516 1.0019 6.25345 0.783476C6.83174 0.565055 7.44984 0.472028 8.0668 0.510558C8.68377 0.549089 9.28549 0.718297 9.83211 1.00697C10.3787 1.29564 10.8578 1.69719 11.2375 2.185L15.725 7.95C16.5475 9.0075 16.8375 10.385 16.5125 11.685L15.145 17.16C15.0747 17.4436 15.0788 17.7405 15.1568 18.0221C15.2347 18.3036 15.3839 18.5604 15.59 18.7675L21.7325 24.91C21.9398 25.1165 22.197 25.2659 22.479 25.3439C22.7611 25.4218 23.0585 25.4257 23.3425 25.355L28.815 23.9875C29.4566 23.828 30.126 23.816 30.7729 23.9524C31.4198 24.0888 32.0274 24.3701 32.55 24.775L38.315 29.26C40.3875 30.8725 40.5775 33.935 38.7225 35.7875L36.1375 38.3725C34.2875 40.2225 31.5225 41.035 28.945 40.1275C22.3466 37.809 16.3563 34.0319 11.42 29.0775C6.46589 24.1419 2.68884 18.1524 0.369957 11.555C-0.535043 8.98 0.277457 6.2125 2.12746 4.3625L4.71246 1.7775Z" fill="white"/>
</g>
<defs>
<clipPath id="clip0_388_838">
<rect width="40" height="40" fill="white" transform="translate(0 0.5)"/>
</clipPath>
</defs>
</svg>
