<svg xmlns="http://www.w3.org/2000/svg" xmlns:xlink="http://www.w3.org/1999/xlink" width="1080" zoomAndPan="magnify" viewBox="0 0 810 1012.49997" height="1350" preserveAspectRatio="xMidYMid meet" version="1.0"><defs><clipPath id="2138d8929c"><path d="M 0.199219 0 L 809.800781 0 L 809.800781 1012 L 0.199219 1012 Z M 0.199219 0 " clip-rule="nonzero"/></clipPath><clipPath id="5b34bd8500"><path d="M 273 344.078125 L 537 344.078125 L 537 648 L 273 648 Z M 273 344.078125 " clip-rule="nonzero"/></clipPath></defs><g clip-path="url(#2138d8929c)"><path fill="#ffffff" d="M 0.199219 0 L 809.800781 0 L 809.800781 1012 L 0.199219 1012 Z M 0.199219 0 " fill-opacity="1" fill-rule="nonzero"/><path fill="#ffffff" d="M 0.199219 0 L 809.800781 0 L 809.800781 1012 L 0.199219 1012 Z M 0.199219 0 " fill-opacity="1" fill-rule="nonzero"/></g><g clip-path="url(#5b34bd8500)"><path fill="#ffffff" d="M 293.679688 364.320312 C 293.015625 364.320312 292.355469 364.351562 291.695312 364.417969 C 291.035156 364.484375 290.382812 364.578125 289.730469 364.707031 C 289.082031 364.839844 288.4375 365 287.804688 365.191406 C 287.171875 365.382812 286.546875 365.605469 285.933594 365.859375 C 285.320312 366.113281 284.722656 366.398438 284.140625 366.710938 C 283.554688 367.023438 282.988281 367.363281 282.433594 367.730469 C 281.882812 368.097656 281.351562 368.492188 280.839844 368.914062 C 280.328125 369.335938 279.835938 369.78125 279.367188 370.25 C 278.898438 370.71875 278.453125 371.207031 278.035156 371.71875 C 277.613281 372.230469 277.21875 372.765625 276.851562 373.316406 C 276.484375 373.867188 276.140625 374.433594 275.828125 375.019531 C 275.515625 375.605469 275.234375 376.203125 274.980469 376.816406 C 274.726562 377.425781 274.503906 378.050781 274.3125 378.683594 C 274.117188 379.320312 273.957031 379.960938 273.828125 380.613281 C 273.699219 381.261719 273.601562 381.917969 273.539062 382.578125 C 273.472656 383.234375 273.441406 383.898438 273.441406 384.558594 L 273.441406 404.800781 C 273.441406 405.464844 273.472656 406.125 273.539062 406.785156 C 273.601562 407.445312 273.699219 408.097656 273.828125 408.75 C 273.957031 409.398438 274.117188 410.042969 274.3125 410.675781 C 274.503906 411.308594 274.726562 411.933594 274.980469 412.546875 C 275.234375 413.15625 275.515625 413.757812 275.828125 414.339844 C 276.140625 414.925781 276.484375 415.492188 276.851562 416.042969 C 277.21875 416.597656 277.613281 417.128906 278.035156 417.640625 C 278.453125 418.152344 278.898438 418.644531 279.367188 419.113281 C 279.835938 419.582031 280.328125 420.023438 280.839844 420.445312 C 281.351562 420.867188 281.882812 421.261719 282.433594 421.628906 C 282.988281 421.996094 283.554688 422.335938 284.140625 422.648438 C 284.722656 422.960938 285.320312 423.246094 285.933594 423.5 C 286.546875 423.753906 287.171875 423.976562 287.804688 424.167969 C 288.4375 424.359375 289.082031 424.523438 289.730469 424.652344 C 290.382812 424.78125 291.035156 424.878906 291.695312 424.941406 C 292.355469 425.007812 293.015625 425.039062 293.679688 425.039062 L 303.800781 425.039062 L 303.800781 607.199219 C 303.800781 608.527344 303.863281 609.847656 303.996094 611.167969 C 304.125 612.488281 304.320312 613.796875 304.578125 615.097656 C 304.835938 616.398438 305.15625 617.683594 305.542969 618.949219 C 305.929688 620.21875 306.375 621.464844 306.882812 622.691406 C 307.390625 623.914062 307.953125 625.113281 308.578125 626.28125 C 309.203125 627.453125 309.886719 628.585938 310.621094 629.691406 C 311.359375 630.792969 312.148438 631.855469 312.988281 632.878906 C 313.828125 633.90625 314.71875 634.886719 315.65625 635.824219 C 316.59375 636.761719 317.574219 637.652344 318.601562 638.492188 C 319.625 639.332031 320.6875 640.121094 321.789062 640.859375 C 322.894531 641.59375 324.027344 642.273438 325.199219 642.898438 C 326.367188 643.523438 327.5625 644.089844 328.789062 644.597656 C 330.015625 645.105469 331.261719 645.550781 332.527344 645.9375 C 333.796875 646.320312 335.082031 646.644531 336.382812 646.902344 C 337.683594 647.160156 338.992188 647.355469 340.3125 647.484375 C 341.632812 647.613281 342.953125 647.679688 344.28125 647.679688 L 465.71875 647.679688 C 467.046875 647.679688 468.367188 647.613281 469.6875 647.484375 C 471.007812 647.355469 472.316406 647.160156 473.617188 646.902344 C 474.917969 646.644531 476.203125 646.320312 477.46875 645.9375 C 478.738281 645.550781 479.984375 645.105469 481.210938 644.597656 C 482.4375 644.089844 483.632812 643.523438 484.800781 642.898438 C 485.972656 642.273438 487.105469 641.59375 488.210938 640.859375 C 489.3125 640.121094 490.375 639.332031 491.398438 638.492188 C 492.425781 637.652344 493.40625 636.761719 494.34375 635.824219 C 495.28125 634.886719 496.171875 633.90625 497.011719 632.878906 C 497.851562 631.855469 498.640625 630.792969 499.378906 629.691406 C 500.113281 628.585938 500.796875 627.453125 501.421875 626.28125 C 502.046875 625.113281 502.609375 623.914062 503.117188 622.691406 C 503.625 621.464844 504.070312 620.21875 504.457031 618.949219 C 504.839844 617.683594 505.164062 616.398438 505.421875 615.097656 C 505.679688 613.796875 505.875 612.488281 506.003906 611.167969 C 506.136719 609.847656 506.199219 608.527344 506.199219 607.199219 L 506.199219 425.039062 L 516.320312 425.039062 C 516.984375 425.039062 517.644531 425.007812 518.304688 424.941406 C 518.964844 424.878906 519.617188 424.78125 520.269531 424.652344 C 520.917969 424.523438 521.5625 424.359375 522.195312 424.167969 C 522.828125 423.976562 523.453125 423.753906 524.066406 423.5 C 524.679688 423.246094 525.277344 422.960938 525.859375 422.648438 C 526.445312 422.335938 527.011719 421.996094 527.566406 421.628906 C 528.117188 421.261719 528.648438 420.867188 529.160156 420.445312 C 529.671875 420.023438 530.164062 419.582031 530.632812 419.113281 C 531.101562 418.644531 531.546875 418.152344 531.964844 417.640625 C 532.386719 417.128906 532.78125 416.597656 533.148438 416.042969 C 533.515625 415.492188 533.859375 414.925781 534.171875 414.339844 C 534.484375 413.757812 534.765625 413.15625 535.019531 412.546875 C 535.273438 411.933594 535.496094 411.308594 535.6875 410.675781 C 535.882812 410.042969 536.042969 409.398438 536.171875 408.75 C 536.300781 408.097656 536.398438 407.445312 536.460938 406.785156 C 536.527344 406.125 536.558594 405.464844 536.558594 404.800781 L 536.558594 384.558594 C 536.558594 383.898438 536.527344 383.234375 536.460938 382.578125 C 536.398438 381.917969 536.300781 381.261719 536.171875 380.613281 C 536.042969 379.960938 535.882812 379.320312 535.6875 378.683594 C 535.496094 378.050781 535.273438 377.425781 535.019531 376.816406 C 534.765625 376.203125 534.484375 375.605469 534.171875 375.019531 C 533.859375 374.433594 533.515625 373.867188 533.148438 373.316406 C 532.78125 372.765625 532.386719 372.230469 531.964844 371.71875 C 531.546875 371.207031 531.101562 370.71875 530.632812 370.25 C 530.164062 369.78125 529.671875 369.335938 529.160156 368.914062 C 528.648438 368.492188 528.117188 368.097656 527.566406 367.730469 C 527.011719 367.363281 526.445312 367.023438 525.859375 366.710938 C 525.277344 366.398438 524.679688 366.113281 524.066406 365.859375 C 523.453125 365.605469 522.828125 365.382812 522.195312 365.191406 C 521.5625 365 520.917969 364.839844 520.269531 364.707031 C 519.617188 364.578125 518.964844 364.484375 518.304688 364.417969 C 517.644531 364.351562 516.984375 364.320312 516.320312 364.320312 L 445.480469 364.320312 C 445.480469 363.65625 445.449219 362.996094 445.382812 362.335938 C 445.316406 361.675781 445.21875 361.023438 445.089844 360.371094 C 444.960938 359.722656 444.800781 359.078125 444.609375 358.445312 C 444.417969 357.808594 444.191406 357.1875 443.9375 356.574219 C 443.6875 355.960938 443.402344 355.363281 443.089844 354.777344 C 442.777344 354.195312 442.4375 353.625 442.070312 353.074219 C 441.699219 352.523438 441.304688 351.992188 440.886719 351.480469 C 440.464844 350.96875 440.019531 350.476562 439.550781 350.007812 C 439.082031 349.539062 438.59375 349.09375 438.082031 348.675781 C 437.566406 348.253906 437.035156 347.859375 436.484375 347.492188 C 435.933594 347.121094 435.367188 346.78125 434.78125 346.46875 C 434.195312 346.15625 433.597656 345.875 432.984375 345.621094 C 432.375 345.367188 431.75 345.144531 431.117188 344.953125 C 430.480469 344.757812 429.839844 344.597656 429.1875 344.46875 C 428.539062 344.339844 427.882812 344.242188 427.222656 344.175781 C 426.5625 344.113281 425.902344 344.078125 425.238281 344.078125 L 384.761719 344.078125 C 384.097656 344.078125 383.4375 344.113281 382.777344 344.175781 C 382.117188 344.242188 381.460938 344.339844 380.8125 344.46875 C 380.160156 344.597656 379.519531 344.757812 378.882812 344.953125 C 378.25 345.144531 377.625 345.367188 377.015625 345.621094 C 376.402344 345.875 375.804688 346.15625 375.21875 346.46875 C 374.632812 346.78125 374.066406 347.121094 373.515625 347.492188 C 372.964844 347.859375 372.433594 348.253906 371.917969 348.675781 C 371.40625 349.09375 370.917969 349.539062 370.449219 350.007812 C 369.980469 350.476562 369.535156 350.96875 369.113281 351.480469 C 368.695312 351.992188 368.300781 352.523438 367.929688 353.074219 C 367.5625 353.625 367.222656 354.195312 366.910156 354.777344 C 366.597656 355.363281 366.3125 355.960938 366.0625 356.574219 C 365.808594 357.1875 365.582031 357.808594 365.390625 358.445312 C 365.199219 359.078125 365.039062 359.722656 364.910156 360.371094 C 364.78125 361.023438 364.683594 361.675781 364.617188 362.335938 C 364.550781 362.996094 364.519531 363.65625 364.519531 364.320312 Z M 354.398438 445.28125 C 355.0625 445.28125 355.722656 445.34375 356.375 445.472656 C 357.027344 445.605469 357.660156 445.796875 358.273438 446.050781 C 358.886719 446.304688 359.46875 446.617188 360.023438 446.984375 C 360.574219 447.355469 361.085938 447.773438 361.554688 448.246094 C 362.027344 448.714844 362.445312 449.226562 362.8125 449.777344 C 363.183594 450.332031 363.496094 450.914062 363.75 451.527344 C 364.003906 452.140625 364.195312 452.773438 364.324219 453.425781 C 364.457031 454.078125 364.519531 454.734375 364.519531 455.398438 L 364.519531 597.082031 C 364.519531 597.746094 364.457031 598.402344 364.324219 599.054688 C 364.195312 599.707031 364.003906 600.339844 363.75 600.953125 C 363.496094 601.566406 363.183594 602.148438 362.8125 602.703125 C 362.445312 603.253906 362.027344 603.765625 361.554688 604.234375 C 361.085938 604.707031 360.574219 605.125 360.023438 605.496094 C 359.46875 605.863281 358.886719 606.175781 358.273438 606.429688 C 357.660156 606.683594 357.027344 606.875 356.375 607.003906 C 355.722656 607.136719 355.0625 607.199219 354.398438 607.199219 C 353.734375 607.199219 353.078125 607.136719 352.425781 607.003906 C 351.773438 606.875 351.140625 606.683594 350.527344 606.429688 C 349.914062 606.175781 349.332031 605.863281 348.777344 605.496094 C 348.226562 605.125 347.714844 604.707031 347.242188 604.234375 C 346.773438 603.765625 346.355469 603.253906 345.984375 602.703125 C 345.617188 602.148438 345.304688 601.566406 345.050781 600.953125 C 344.796875 600.339844 344.605469 599.707031 344.472656 599.054688 C 344.34375 598.402344 344.28125 597.746094 344.28125 597.082031 L 344.28125 455.398438 C 344.28125 454.734375 344.34375 454.078125 344.472656 453.425781 C 344.605469 452.773438 344.796875 452.140625 345.050781 451.527344 C 345.304688 450.914062 345.617188 450.332031 345.984375 449.777344 C 346.355469 449.226562 346.773438 448.714844 347.242188 448.246094 C 347.714844 447.773438 348.226562 447.355469 348.777344 446.984375 C 349.332031 446.617188 349.914062 446.304688 350.527344 446.050781 C 351.140625 445.796875 351.773438 445.605469 352.425781 445.472656 C 353.078125 445.34375 353.734375 445.28125 354.398438 445.28125 M 405 445.28125 C 405.664062 445.28125 406.324219 445.34375 406.972656 445.472656 C 407.625 445.605469 408.257812 445.796875 408.871094 446.050781 C 409.488281 446.304688 410.070312 446.617188 410.621094 446.984375 C 411.175781 447.355469 411.6875 447.773438 412.15625 448.246094 C 412.625 448.714844 413.046875 449.226562 413.414062 449.777344 C 413.785156 450.332031 414.09375 450.914062 414.347656 451.527344 C 414.605469 452.140625 414.796875 452.773438 414.925781 453.425781 C 415.054688 454.078125 415.121094 454.734375 415.121094 455.398438 L 415.121094 597.082031 C 415.121094 597.746094 415.054688 598.402344 414.925781 599.054688 C 414.796875 599.707031 414.605469 600.339844 414.351562 600.953125 C 414.09375 601.566406 413.785156 602.148438 413.414062 602.703125 C 413.046875 603.253906 412.625 603.765625 412.15625 604.234375 C 411.6875 604.707031 411.175781 605.125 410.621094 605.496094 C 410.070312 605.863281 409.488281 606.175781 408.871094 606.429688 C 408.257812 606.683594 407.625 606.875 406.972656 607.003906 C 406.324219 607.136719 405.664062 607.199219 405 607.199219 C 404.335938 607.199219 403.675781 607.136719 403.027344 607.003906 C 402.375 606.875 401.742188 606.683594 401.128906 606.429688 C 400.511719 606.175781 399.929688 605.863281 399.378906 605.496094 C 398.824219 605.125 398.3125 604.707031 397.84375 604.234375 C 397.375 603.765625 396.953125 603.253906 396.585938 602.703125 C 396.214844 602.148438 395.90625 601.566406 395.648438 600.953125 C 395.394531 600.339844 395.203125 599.707031 395.074219 599.054688 C 394.945312 598.402344 394.878906 597.746094 394.878906 597.082031 L 394.878906 455.398438 C 394.878906 454.734375 394.945312 454.078125 395.074219 453.425781 C 395.203125 452.773438 395.394531 452.140625 395.648438 451.527344 C 395.90625 450.914062 396.214844 450.332031 396.585938 449.777344 C 396.953125 449.226562 397.375 448.714844 397.84375 448.246094 C 398.3125 447.773438 398.824219 447.355469 399.378906 446.984375 C 399.929688 446.617188 400.511719 446.304688 401.128906 446.050781 C 401.742188 445.796875 402.375 445.605469 403.027344 445.472656 C 403.675781 445.34375 404.335938 445.28125 405 445.28125 M 465.71875 455.398438 L 465.71875 597.082031 C 465.71875 597.746094 465.65625 598.402344 465.527344 599.054688 C 465.394531 599.707031 465.203125 600.339844 464.949219 600.953125 C 464.695312 601.566406 464.382812 602.148438 464.015625 602.703125 C 463.644531 603.253906 463.226562 603.765625 462.757812 604.234375 C 462.285156 604.707031 461.773438 605.125 461.222656 605.496094 C 460.667969 605.863281 460.085938 606.175781 459.472656 606.429688 C 458.859375 606.683594 458.226562 606.875 457.574219 607.003906 C 456.921875 607.136719 456.265625 607.199219 455.601562 607.199219 C 454.933594 607.199219 454.277344 607.136719 453.625 607.003906 C 452.972656 606.875 452.339844 606.683594 451.726562 606.429688 C 451.113281 606.175781 450.53125 605.863281 449.976562 605.496094 C 449.425781 605.125 448.914062 604.707031 448.445312 604.234375 C 447.972656 603.765625 447.554688 603.253906 447.183594 602.703125 C 446.816406 602.148438 446.503906 601.566406 446.25 600.953125 C 445.996094 600.339844 445.804688 599.707031 445.675781 599.054688 C 445.542969 598.402344 445.480469 597.746094 445.480469 597.082031 L 445.480469 455.398438 C 445.480469 454.734375 445.542969 454.078125 445.675781 453.425781 C 445.804688 452.773438 445.996094 452.140625 446.25 451.527344 C 446.503906 450.914062 446.816406 450.332031 447.183594 449.777344 C 447.554688 449.226562 447.972656 448.714844 448.445312 448.246094 C 448.914062 447.773438 449.425781 447.355469 449.976562 446.984375 C 450.53125 446.617188 451.113281 446.304688 451.726562 446.050781 C 452.339844 445.796875 452.972656 445.605469 453.625 445.472656 C 454.277344 445.34375 454.933594 445.28125 455.601562 445.28125 C 456.265625 445.28125 456.921875 445.34375 457.574219 445.472656 C 458.226562 445.605469 458.859375 445.796875 459.472656 446.050781 C 460.085938 446.304688 460.667969 446.617188 461.222656 446.984375 C 461.773438 447.355469 462.285156 447.773438 462.757812 448.246094 C 463.226562 448.714844 463.644531 449.226562 464.015625 449.777344 C 464.382812 450.332031 464.695312 450.914062 464.949219 451.527344 C 465.203125 452.140625 465.394531 452.773438 465.527344 453.425781 C 465.65625 454.078125 465.71875 454.734375 465.71875 455.398438 " fill-opacity="1" fill-rule="nonzero"/></g></svg>